<?xml version="1.0" encoding="UTF-8"?>
<svg version="1.1" xmlns="http://www.w3.org/2000/svg" width="768" height="629">
<path d="M0 0 C1.32 0 2.64 0 4 0 C7.93888073 8.55991398 10.22458316 17.55015773 12.43164062 26.67480469 C12.92374565 28.68803846 13.4508949 30.69264513 13.984375 32.6953125 C16.14411056 41.96587553 16.34278403 51.21254563 16.4375 60.6875 C16.45981689 61.99428711 16.48213379 63.30107422 16.50512695 64.64746094 C16.47171617 78.94005156 12.6939077 91.90261134 2.9375 102.625 C-14.70177223 119.06247566 -39.87018674 123.05454503 -63 125 C-64.00409912 125.08757568 -65.00819824 125.17515137 -66.04272461 125.26538086 C-77.71176722 126.16970141 -89.3643194 126.19868881 -101.0625 126.1875 C-102.13059906 126.18722809 -103.19869812 126.18695618 -104.29916382 126.18667603 C-175.85226129 126.10345075 -175.85226129 126.10345075 -196 117 C-193.35854012 128.09876566 -188.57670848 135.1675401 -179.7578125 142.37109375 C-178.88769531 143.17740234 -178.88769531 143.17740234 -178 144 C-178 144.66 -178 145.32 -178 146 C-178.64066406 146.14695312 -179.28132813 146.29390625 -179.94140625 146.4453125 C-186.08612508 148.03872692 -191.00956055 149.87893604 -195 155 C-197.4415217 159.86560396 -198.4195688 164.54560565 -198 170 C-205.28547653 167.0318429 -211.14264155 159.2437114 -214.234375 152.1796875 C-220.66476749 134.70579486 -219.32419321 115.65629884 -214 98 C-213.80164551 97.32517578 -213.60329102 96.65035156 -213.39892578 95.95507812 C-206.00283 71.45440762 -191.43698307 36.39065451 -170 21 C-169.34 21.33 -168.68 21.66 -168 22 C-168 31.12496138 -171.53807921 37.62613081 -175.68457031 45.46826172 C-182.65624086 58.88626906 -189.5429768 72.5146746 -194 87 C-193.10667969 86.52046875 -192.21335938 86.0409375 -191.29296875 85.546875 C-185.45884311 82.80628929 -179.58995327 82.73532219 -173.25 83.4375 C-149.75714936 85.92263935 -118.58183062 85.25157646 -99.10546875 69.8984375 C-89.42660455 61.17129835 -84.68951511 51.71407145 -82 39 C-78.98935399 40.41677459 -76.34629459 42.09031959 -73.625 44 C-65.57540418 49.34900209 -57.64570507 50.1844726 -48.12890625 48.48828125 C-47.42636719 48.32714844 -46.72382813 48.16601562 -46 48 C-49.71244984 63.30571424 -58.44835424 74.71274009 -71.73120117 82.96582031 C-101.03142741 100.47501497 -140.95245771 97.52864585 -173.75 95.1875 C-175.29989624 95.08260254 -175.29989624 95.08260254 -176.88110352 94.97558594 C-190.13894773 93.86105227 -190.13894773 93.86105227 -194 90 C-196.21211746 97.05112439 -196.20177072 103.64657821 -196 111 C-195.18163666 110.67370102 -194.36327332 110.34740204 -193.52011108 110.01121521 C-189.49447291 108.85477825 -185.82210645 108.75543398 -181.67822266 108.82055664 C-180.45724884 108.82734688 -180.45724884 108.82734688 -179.21160889 108.83427429 C-177.45031133 108.84519832 -175.68903734 108.86067868 -173.92781448 108.88023567 C-171.12530133 108.91057588 -168.3229992 108.92726148 -165.52035522 108.94029236 C-157.55360995 108.97987211 -149.58711787 109.04452525 -141.62060547 109.11645508 C-136.73777662 109.15959648 -131.85503537 109.18743319 -126.97205734 109.20675468 C-125.12637422 109.21720672 -123.28071317 109.23346889 -121.4351387 109.25605965 C-106.46615837 109.43882827 -92.38120578 108.23066625 -78.25 102.8125 C-77.45416504 102.51134277 -76.65833008 102.21018555 -75.83837891 101.89990234 C-61.36233521 96.18636959 -48.70666494 86.31015135 -42 72 C-39.3957339 65.30124887 -37.06824716 58.84032612 -36.5625 51.625 C-35.94285049 47.88231694 -35.08670272 47.0676372 -32.015625 44.671875 C-29.54544674 43.08778267 -27.01648725 41.61128491 -24.484375 40.12890625 C-12.43796132 33.00389328 -7.57697439 18.19428748 -3.04296875 5.64453125 C-2 3 -2 3 0 0 Z " fill="#fff" transform="translate(361,243)"/>
<path d="M0 0 C1.60505289 11.46466351 -6.68792029 21.74522288 -12.88208008 30.76879883 C-28.87231375 54.34418156 -45.83348249 83.99273777 -48 113 C-48.06960937 113.88042969 -48.13921875 114.76085937 -48.2109375 115.66796875 C-48.84330708 132.13389978 -44.01492769 148.65920138 -33 161 C-28.87099014 165.4386856 -24.17602527 170.21565126 -18.8515625 173.20703125 C-16.08207287 175.8888788 -16.20236959 178.90367249 -15.9375 182.5625 C-14.26210554 199.20289008 -8.35098664 210.56616583 4 222 C5.33899497 223.32764755 6.67432491 224.65905216 8 226 C6 228 6 228 2.03515625 228.25 C-3.30667536 228.1221795 -8.35999055 227.16469374 -13.5625 226 C-14.55121094 225.77997314 -15.53992188 225.55994629 -16.55859375 225.33325195 C-39.58012281 219.9892273 -65.7775852 212.46885582 -80.46484375 192.50390625 C-88.789472 178.92607747 -90.20892254 163.47409611 -86.71948242 148.09838867 C-75.25542159 104.01707387 -48.83333508 59.70108615 -24 22 C-23.00419922 20.43378906 -23.00419922 20.43378906 -21.98828125 18.8359375 C-8.54783099 -2.02448629 -8.54783099 -2.02448629 0 0 Z " fill="#fff" transform="translate(174,250)"/>
<path d="M0 0 C10.64474031 9.04588603 18.82017735 18.99499006 26.33105469 30.70922852 C27.62684146 32.72614034 28.93744526 34.73263002 30.25244141 36.73706055 C42.42341837 55.33383291 53.88309821 74.27875013 64.63134766 93.7331543 C65.04868164 94.47984375 65.46601563 95.2265332 65.89599609 95.99584961 C70.94464884 105.04787662 75.35865067 114.32442811 79.56884766 123.7956543 C80.04209473 124.85510254 80.5153418 125.91455078 81.00292969 127.00610352 C84.4690748 134.94006055 86.99554269 141.99247349 86.63134766 150.7331543 C85.64134766 151.0631543 84.65134766 151.3931543 83.63134766 151.7331543 C76.19366894 147.77470295 72.6505931 140.01989213 69.04745483 132.81234741 C67.35940199 129.44145322 65.61031186 126.1023844 63.86572266 122.76049805 C63.3375721 121.74476463 63.3375721 121.74476463 62.79875183 120.70851135 C57.24621362 110.09057513 50.94890601 99.90891629 44.63134766 89.7331543 C44.11169434 88.88849609 43.59204102 88.04383789 43.05664062 87.17358398 C30.88739078 67.45581418 14.23064757 48.140509 -9.20458984 42.1862793 C-22.96032898 39.30601623 -35.3986039 41.03498072 -48.14990234 47.0612793 C-51.948274 48.21149043 -54.54839436 47.13604572 -58.02490234 45.4284668 C-58.96333984 44.91026367 -59.90177734 44.39206055 -60.86865234 43.8581543 C-74.44312938 36.93783267 -87.79524137 36.13433629 -102.36083984 40.0769043 C-106.18293522 40.91081602 -109.78518003 41.52489045 -113.36865234 39.7331543 C-113.36865234 35.2408312 -112.03148251 33.01428135 -108.99365234 29.9206543 C-104.89289801 26.06887433 -100.54258023 22.53949033 -96.15771484 19.01831055 C-93.48507949 16.82854629 -90.92030356 14.56204231 -88.36865234 12.2331543 C-84.05984764 8.31296014 -79.62669283 4.58747173 -75.09130859 0.93237305 C-73.31271185 -0.50428401 -71.5488227 -1.95939586 -69.80224609 -3.43481445 C-47.38893693 -22.13010989 -21.82081429 -17.9730129 0 0 Z " fill="#fff" transform="translate(176.36865234375,158.266845703125)"/>
<path d="M0 0 C4.29 0 8.58 0 13 0 C13 122.76 13 245.52 13 372 C8.71 372 4.42 372 0 372 C0 249.24 0 126.48 0 0 Z " fill="#fff" transform="translate(398,129)"/>
<path d="M0 0 C0.53125488 0.3928418 1.06250977 0.78568359 1.60986328 1.19042969 C35.03826406 25.9182878 35.03826406 25.9182878 40 41 C39.75 43.75 39.75 43.75 39 46 C35.48651121 47.75674439 31.74886206 46.76552455 28 46 C24.93953113 44.8911823 22.08029183 43.48668187 19.1875 42 C17.72421215 41.26771597 16.25941547 40.53843749 14.79296875 39.8125 C14.1589917 39.48894531 13.52501465 39.16539062 12.87182617 38.83203125 C5.99805822 35.77662481 -2.43885454 35.67577543 -9.4140625 38.26953125 C-13.4559237 40.29046185 -17.24131341 42.49420894 -21 45 C-21.99 45 -22.98 45 -24 45 C-25.76171875 42.875 -25.76171875 42.875 -27.6875 40 C-34.78056239 29.94074789 -43.01485953 22.16652122 -54.625 17.5625 C-66.46885309 15.58852448 -75.44354121 19.28971163 -85.7109375 25.14453125 C-88.52742138 26.19710799 -90.15219361 25.82012799 -93 25 C-94.21868731 21.54050054 -93.87417848 19.78774417 -92.3125 16.5 C-84.72631616 2.34884938 -69.52608139 -8.23354425 -54.59765625 -13.34375 C-34.86268517 -18.3294269 -15.75020272 -12.00613062 0 0 Z " fill="#fff" transform="translate(308,165)"/>
<path d="M0 0 C3.07630788 0.30763079 4.57717873 0.5352863 6.6953125 2.86328125 C15.29815659 17.60094038 17.25772662 36.15754598 13.875 52.8125 C8.65156948 72.46717578 -6.23536912 83.48345969 -22.9375 93.25 C-39.74810087 102.72536526 -58.54603704 108.94993102 -78 107 C-78.66 106.34 -79.32 105.68 -80 105 C-79.86066369 101.4829594 -79.44532349 99.54719488 -77.20703125 96.796875 C-76.41683594 96.12140625 -75.62664062 95.4459375 -74.8125 94.75 C-73.91917969 93.98171875 -73.02585938 93.2134375 -72.10546875 92.421875 C-69.29933104 90.23344056 -66.4453489 88.23977905 -63.49145508 86.26293945 C-55.95270193 81.37887741 -55.95270193 81.37887741 -51.3984375 73.9140625 C-50.40643102 66.65879941 -50.73270298 59.29869366 -51 52 C-50.37625488 51.887771 -49.75250977 51.77554199 -49.10986328 51.65991211 C-35.07009089 49.08477798 -19.1032694 45.98287503 -10 34 C-4.36506058 24.8282369 -2.84201839 16.48104222 -2.34375 5.85546875 C-2 3 -2 3 0 0 Z " fill="#fff" transform="translate(297,374)"/>
<path d="M0 0 C2.3125 0 2.3125 0 5 1 C8.78338701 8.88205626 9.32389321 17.41583008 10.37304688 26.00195312 C11.42676626 33.88941745 12.71680067 41.21934623 18.0625 47.375 C20.97683536 48.98718552 23.47619702 49.75788283 26.68359375 50.6015625 C27.6780249 50.86533691 28.67245605 51.12911133 29.69702148 51.40087891 C30.83699585 51.69744385 30.83699585 51.69744385 32 52 C31.79318604 52.79172607 31.58637207 53.58345215 31.37329102 54.39916992 C30.43489647 57.99489967 29.49867595 61.59119201 28.5625 65.1875 C28.23701172 66.43337891 27.91152344 67.67925781 27.57617188 68.96289062 C27.10727539 70.7659668 27.10727539 70.7659668 26.62890625 72.60546875 C26.34088135 73.71043701 26.05285645 74.81540527 25.75610352 75.95385742 C23.73974445 84.07723877 22.01954183 93.49530911 25.5 101.4375 C28.84828637 106.96794542 34.06526261 109.95039922 39.59765625 113.0078125 C40.22945801 113.3584375 40.86125977 113.7090625 41.51220703 114.0703125 C42.77993651 114.76478262 44.05563114 115.44493642 45.33935547 116.109375 C49.8040639 118.51730764 49.8040639 118.51730764 50.91015625 121.2421875 C50.93980469 121.82226562 50.96945313 122.40234375 51 123 C41.68091852 126.92382378 31.01398676 125.38779746 21.83203125 121.7421875 C7.09661139 115.14320698 -7.8525875 106.92341011 -14.12207031 91.18286133 C-16.83315517 82.92938845 -17.59798668 75.5325584 -17.4375 66.875 C-17.42428711 65.61034912 -17.41107422 64.34569824 -17.39746094 63.04272461 C-16.99147637 41.78131304 -13.60813467 17.10736931 0 0 Z " fill="#fff" transform="translate(41,228)"/>
<path d="M0 0 C5.07251113 4.07123333 8.16607067 8.67573546 10.84765625 14.55859375 C11.21117187 15.34878906 11.5746875 16.13898438 11.94921875 16.953125 C14.53076133 24.43959849 13.56365173 31.97911849 10.16015625 38.99609375 C3.86020969 50.13428234 -4.65728729 57.22111549 -17.07421875 60.8984375 C-26.01667654 62.81629964 -34.18145943 62.21045411 -42.15234375 57.55859375 C-50.33565918 51.64987398 -56.14413558 44.59963459 -58.15234375 34.55859375 C-58.91613539 26.46240234 -56.75083408 19.28051117 -51.90234375 12.80859375 C-39.7127767 -1.64584066 -17.50134481 -11.72050133 0 0 Z " fill="#fff" transform="translate(337.15234375,216.44140625)"/>
<path d="M0 0 C7.39411291 7.29829288 10.36591797 16.71223551 10.5 26.9375 C10.35335984 37.2253371 7.74607369 46.08862737 1.06640625 54.0234375 C-6.1517649 60.92777512 -13.36608298 63.32276178 -23.1171875 63.21875 C-31.84422619 62.55653568 -38.69304793 58.64661831 -44.625 52.3125 C-52.46102243 43.02022561 -53.74531549 32.82843283 -53 21 C-51.39265783 11.39681159 -46.40133991 3.25757408 -38.78515625 -2.78515625 C-26.77025012 -10.96160221 -10.97823222 -8.94596418 0 0 Z " fill="#fff" transform="translate(223,407)"/>
<path d="M0 0 C6.5807351 4.78296261 11.84485681 9.98781695 14 18 C15.38046351 27.66809678 15.00080221 36.93831622 9 45 C4.08314607 51.15800153 -1.59128273 54.53042758 -9 57 C-21.27321437 57.84979123 -31.2244896 56.82584277 -41.12109375 48.80859375 C-49.6025818 40.64450027 -53.99163999 29.97507756 -54.5 18.25 C-54.1500134 10.72528808 -51.71374505 5.25421385 -46.1875 0.125 C-32.9601349 -10.49622997 -13.82414183 -8.95147402 0 0 Z " fill="#fff" transform="translate(109,214)"/>
<path d="M0 0 C3.01064601 1.41677459 5.65370541 3.09031959 8.375 5 C16.42459582 10.34900209 24.35429493 11.1844726 33.87109375 9.48828125 C34.57363281 9.32714844 35.27617187 9.16601562 36 9 C32.28755016 24.30571424 23.55164576 35.71274009 10.26879883 43.96582031 C-19.03142741 61.47501497 -58.95245771 58.52864585 -91.75 56.1875 C-93.29989624 56.08260254 -93.29989624 56.08260254 -94.88110352 55.97558594 C-100.73113599 55.48379722 -105.71569354 54.63600869 -111 52 C-111.70996094 49.89526367 -111.70996094 49.89526367 -112 48 C-105.41689431 44.01548866 -98.7539418 43.60640532 -91.25 44.4375 C-67.75714936 46.92263935 -36.58183062 46.25157646 -17.10546875 30.8984375 C-7.42660455 22.17129835 -2.68951511 12.71407145 0 0 Z " fill="#fff" transform="translate(279,282)"/>
<path d="M0 0 C1.53960171 1.33278954 3.06151005 2.68637116 4.5625 4.0625 C5.25988281 4.66835937 5.95726562 5.27421875 6.67578125 5.8984375 C24.10615889 22.02233345 35.68505389 44.67081678 46.6875 65.375 C47.13697998 66.21595215 47.58645996 67.0569043 48.04956055 67.92333984 C52.21948633 75.92991781 55.05929674 82.95455981 54.5625 92.0625 C49.12799366 91.18451001 46.73372133 87.25997663 43.5625 83.0625 C41.15699916 79.43059819 38.94875223 75.69724827 36.75 71.9375 C31.40243263 62.99493531 25.97872564 54.27873037 19.5625 46.0625 C19.10697754 45.47678223 18.65145508 44.89106445 18.18212891 44.28759766 C9.47443307 33.24764105 -0.70511383 22.545969 -14.4375 18.0625 C-15.30375 17.77826172 -15.30375 17.77826172 -16.1875 17.48828125 C-26.90542269 15.46006324 -38.10143527 17.04257152 -48.4375 20.0625 C-48.293125 19.52882812 -48.14875 18.99515625 -48 18.4453125 C-45.8789472 9.93164224 -44.75701378 0.94253735 -49.4375 -6.9375 C-52.00933314 -9.21287692 -52.00933314 -9.21287692 -54.4375 -10.9375 C-54.4375 -11.9275 -54.4375 -12.9175 -54.4375 -13.9375 C-34.41321634 -16.96003338 -16.05059404 -12.44232096 0 0 Z " fill="#fff" transform="translate(185.4375,227.9375)"/>
<path d="M0 0 C0.66 0.33 1.32 0.66 2 1 C2 10.12484263 -1.53857367 16.62978466 -5.68457031 24.47265625 C-12.81201156 38.16665621 -19.98622931 52.03436928 -24 67 C-24.22945312 67.83402344 -24.45890625 68.66804688 -24.6953125 69.52734375 C-25.28424731 72.01994814 -25.67430173 74.45883766 -26 77 C-26.16886719 78.28648437 -26.33773437 79.57296875 -26.51171875 80.8984375 C-27.78463462 92.69878434 -26.17069745 102.42313443 -19.1875 112.4375 C-16.33951389 115.89523771 -13.02139093 118.75056535 -9.5390625 121.5546875 C-9.03117187 122.03164063 -8.52328125 122.50859375 -8 123 C-8 123.66 -8 124.32 -8 125 C-8.64066406 125.14695312 -9.28132813 125.29390625 -9.94140625 125.4453125 C-16.08612508 127.03872692 -21.00956055 128.87893604 -25 134 C-27.4415217 138.86560396 -28.4195688 143.54560565 -28 149 C-35.28547653 146.0318429 -41.14264155 138.2437114 -44.234375 131.1796875 C-50.66476749 113.70579486 -49.32419321 94.65629884 -44 77 C-43.80164551 76.32517578 -43.60329102 75.65035156 -43.39892578 74.95507812 C-36.00283 50.45440762 -21.43698307 15.39065451 0 0 Z " fill="#fff" transform="translate(191,264)"/>
<path d="M0 0 C5.94 0 11.88 0 18 0 C21.96 12.54 25.92 25.08 30 38 C32.27209187 34.59186219 33.35519928 31.17095917 34.56640625 27.3046875 C34.92483864 26.18261398 34.92483864 26.18261398 35.29051208 25.03787231 C36.05229858 22.65163985 36.80789186 20.26351136 37.5625 17.875 C38.32124651 15.47953917 39.08135712 13.08454533 39.84519958 10.69070435 C40.32021077 9.20152193 40.7921832 7.71136629 41.26087952 6.22018433 C42.88776807 1.11223193 42.88776807 1.11223193 44 0 C49.61 0 55.22 0 61 0 C61 18.81 61 37.62 61 57 C57.04 57 53.08 57 49 57 C48.505 39.675 48.505 39.675 48 22 C44.04 33.55 40.08 45.1 36 57 C32.04 57 28.08 57 24 57 C22.72801254 53.04203428 21.45737904 49.0836422 20.1875 45.125 C19.83107422 44.01640625 19.47464844 42.9078125 19.10742188 41.765625 C18.75615234 40.66992188 18.40488281 39.57421875 18.04296875 38.4453125 C17.56380005 36.95281982 17.56380005 36.95281982 17.07495117 35.43017578 C15.67596221 30.96599342 14.34428743 26.48095811 13 22 C12.67 33.55 12.34 45.1 12 57 C8.04 57 4.08 57 0 57 C0 38.19 0 19.38 0 0 Z M49 16 C50 18 50 18 50 18 Z " fill="#fff" transform="translate(479,284)"/>
<path d="M0 0 C5.28 0 10.56 0 16 0 C19.10017898 3.75779271 20.84580938 6.332587 22.80957031 10.58740234 C24.77971507 14.58021827 27.08998067 18.37113592 29.36083984 22.19848633 C32.27072017 27.11459662 35.1300926 32.06044785 38 37 C38.33 24.79 38.66 12.58 39 0 C42.96 0 46.92 0 51 0 C51 18.81 51 37.62 51 57 C45.39 57 39.78 57 34 57 C32.49759766 54.28523438 32.49759766 54.28523438 30.96484375 51.515625 C29.96882642 49.71808378 28.97234881 47.92079845 27.97583008 46.12353516 C27.29566384 44.89626129 26.61595895 43.6687316 25.93676758 42.44091797 C24.94741051 40.65260564 23.95626705 38.8652925 22.96484375 37.078125 C22.3730835 36.00981445 21.78132324 34.94150391 21.17163086 33.84082031 C18.16859529 28.52954931 15.07434925 23.27031299 12 18 C12 30.87 12 43.74 12 57 C8.04 57 4.08 57 0 57 C0 38.19 0 19.38 0 0 Z " fill="#fff" transform="translate(524,378)"/>
<path d="M0 0 C5.28 0 10.56 0 16 0 C   19.49839645 3.6654641 20.93923347 5.65821646 22.9375 10.0625 C23.90307442 11.95017824 24.87056603 13.83687689 25.83984375 15.72265625 C27.40412109 18.82994141 27.40412109 18.82994141 29 22 C33.455 29.425 33.455 29.425 38 37 C38.33 24.79 38.66 12.58 39 0 C42.96 0 46.92 0 51 0 C51 18.81 51 37.62 51 57 C45.39 57 39.78 57 34 57 C32.0206125 53.50012474 30.04148801 50.00010115 28.0625 46.5 C27.51787109 45.53707031 26.97324219 44.57414062 26.41210938 43.58203125 C21.59515468 35.06186862 16.79849713 26.53066157 12 18 C12 30.87 12 43.74 12 57 C8.04 57 4.08 57 0 57 C0 38.19 0 19.38 0 0 Z " fill="#fff" transform="translate(480,189)"/>
<path d="M0 0 C1.53271273 4.58798777 0.02911182 6.77944742 -2 11 C-2.845625 10.84144531 -3.69125 10.68289062 -4.5625 10.51953125 C-15.40865153 8.81828768 -15.40865153 8.81828768 -25.6875 11.5625 C-31.22733927 17.40179004 -31.54963939 23.01309133 -31.3515625 30.828125 C-30.86692054 35.20067244 -29.78767069 38.56831297 -27 42 C-22.71123467 45.02736376 -17.0582129 44.17679191 -12 44 C-12 41.03 -12 38.06 -12 35 C-15.3 34.67 -18.6 34.34 -22 34 C-22 30.37 -22 26.74 -22 23 C-14.08 23 -6.16 23 2 23 C2 32.57 2 42.14 2 52 C-7.32855516 56.66427758 -18.29679403 57.46453167 -28.609375 55.50390625 C-35.47290158 53.14955702 -39.5027691 49.35675047 -42.8125 43.125 C-44.69335046 39.04379563 -45.75307005 35.52704909 -46 31 C-46.05027344 30.32582031 -46.10054687 29.65164062 -46.15234375 28.95703125 C-46.52940797 20.43537986 -44.87103798 12.73000425 -39.375 6.0625 C-28.4856469 -5.14771802 -13.89249022 -4.43714517 0 0 Z " fill="#fff" transform="translate(634,191)"/>
<path d="M0 0 C26 0 26 0 35 4 C39.22699604 8.22699604 39.87537466 11.06830725 40.25 16.875 C40.16238575 21.59740788 38.94533551 25.12396397 35.46484375 28.48046875 C34.01660899 29.7027378 32.51202185 30.85758349 31 32 C34.29692503 38.55914558 38.33119781 44.423521 42.69677734 50.30126953 C46 54.79590028 46 54.79590028 46 57 C41.20328119 57.59875824 36.77791353 57.83482225 32 57 C28.63264834 54.23689437 26.96543943 50.83946308 25 47 C23.81490235 44.96545328 22.60680708 42.9441111 21.375 40.9375 C20.84648438 40.01839844 20.31796875 39.09929687 19.7734375 38.15234375 C17.91536732 35.4352792 17.91536732 35.4352792 13 35 C13 42.26 13 49.52 13 57 C8.71 57 4.42 57 0 57 C0 38.19 0 19.38 0 0 Z M13 11 C13 15.62 13 20.24 13 25 C19.91295034 24.72728459 19.91295034 24.72728459 26 22 C26.89562115 18.83087902 27.28915213 16.82297146 26.1875 13.6875 C25.09312675 11.84902178 25.09312675 11.84902178 23 11 C21.29297265 10.93003986 19.58331997 10.91559846 17.875 10.9375 C16.26625 10.958125 14.6575 10.97875 13 11 Z " fill="#fff" transform="translate(659,378)"/>
<path d="M0 0 C4.29 0 8.58 0 13 0 C13.01458252 1.15000488 13.02916504 2.30000977 13.04418945 3.48486328 C13.10233762 7.76788805 13.17956924 12.05039616 13.26245117 16.33300781 C13.29562296 18.18350819 13.32367887 20.03410786 13.34643555 21.88476562 C13.3801245 24.55121003 13.4324466 27.2167509 13.48828125 29.8828125 C13.49467117 30.70492218 13.5010611 31.52703186 13.50764465 32.37405396 C13.63166761 37.26348013 14.21372548 40.80476879 17 45 C21.59682513 46.53227504 25.42147572 46.72063065 29.875 44.6875 C32.26971972 43.10128715 32.26971972 43.10128715 33 40 C33.11235161 38.66548737 33.17575649 37.32645611 33.20532227 35.98754883 C33.22526749 35.18694534 33.24521271 34.38634186 33.26576233 33.56147766 C33.28247482 32.70201035 33.29918732 31.84254303 33.31640625 30.95703125 C33.33718735 30.0734343 33.35796844 29.18983734 33.37937927 28.27946472 C33.44475754 25.45722215 33.50370528 22.63488665 33.5625 19.8125 C33.60569637 17.89907894 33.64931102 15.98566727 33.69335938 14.07226562 C33.80042695 9.38160563 33.90172752 4.69085217 34 0 C38.29 0 42.58 0 47 0 C47.09931654 5.97732771 47.17167995 11.9541688 47.21972656 17.93212891 C47.23976836 19.96313857 47.26700947 21.99409106 47.30175781 24.02490234 C47.35060414 26.95424556 47.37304343 29.882822 47.390625 32.8125 C47.41127014 33.71178223 47.43191528 34.61106445 47.45318604 35.53759766 C47.45528845 41.52416688 46.38513402 45.99777015 43 51 C40.78125 53.05859375 40.78125 53.05859375 38.5 54.4375 C37.7471875 54.91058594 36.994375 55.38367188 36.21875 55.87109375 C29.79064285 59.14173277 21.479306 58.97004079 14.546875 57.46875 C9.73000077 55.77732851 5.55062965 53.64911999 2.91900635 49.1532135 C0.10724326 43.25246483 -0.54416239 38.4204736 -0.390625 31.93359375 C-0.38496521 31.01409439 -0.37930542 30.09459503 -0.37347412 29.14723206 C-0.35128849 26.24343236 -0.30112758 23.34091943 -0.25 20.4375 C-0.2299119 18.45509609 -0.2116652 16.47267262 -0.1953125 14.49023438 C-0.15148241 9.65966914 -0.08258128 4.83005184 0 0 Z " fill="#fff" transform="translate(641,189)"/>
<path d="M0 0 C4.29 0 8.58 0 13 0 C13.01458252 1.18553467 13.02916504 2.37106934 13.04418945 3.5925293 C13.10225938 8.00038477 13.17949184 12.40773404 13.26245117 16.81518555 C13.29565962 18.72102631 13.32370425 20.62696446 13.34643555 22.53295898 C13.38005668 25.27630015 13.43237595 28.01875222 13.48828125 30.76171875 C13.49467117 31.61086349 13.5010611 32.46000824 13.50764465 33.33488464 C13.62265673 37.98583735 13.8951634 41.27703489 17 45 C21.59682513 46.53227504 25.42147572 46.72063065 29.875 44.6875 C32.26971972 43.10128715 32.26971972 43.10128715 33 40 C33.11235161 38.66548737 33.17575649 37.32645611 33.20532227 35.98754883 C33.22526749 35.18694534 33.24521271 34.38634186 33.26576233 33.56147766 C33.28247482 32.70201035 33.29918732 31.84254303 33.31640625 30.95703125 C33.33718735 30.0734343 33.35796844 29.18983734 33.37937927 28.27946472 C33.44475754 25.45722215 33.50370528 22.63488665 33.5625 19.8125 C33.60569637 17.89907894 33.64931102 15.98566727 33.69335938 14.07226562 C33.80042695 9.38160563 33.90172752 4.69085217 34 0 C38.29 0 42.58 0 47 0 C47.09931654 5.97732771 47.17167995 11.9541688 47.21972656 17.93212891 C47.23976836 19.96313857 47.26700947 21.99409106 47.30175781 24.02490234 C47.35060414 26.95424556 47.37304343 29.882822 47.390625 32.8125 C47.41127014 33.71178223 47.43191528 34.61106445 47.45318604 35.53759766 C47.45528845 41.52416688 46.38513402 45.99777015 43 51 C40.78125 53.05859375 40.78125 53.05859375 38.5 54.4375 C37.7471875 54.91058594 36.994375 55.38367188 36.21875 55.87109375 C29.79064285 59.14173277 21.479306 58.97004079 14.546875 57.46875 C9.73000077 55.77732851 5.55062965 53.64911999 2.91900635 49.1532135 C0.10724326 43.25246483 -0.54416239 38.4204736 -0.390625 31.93359375 C-0.38496521 31.01409439 -0.37930542 30.09459503 -0.37347412 29.14723206 C-0.35128849 26.24343236 -0.30112758 23.34091943 -0.25 20.4375 C-0.2299119 18.45509609 -0.2116652 16.47267262 -0.1953125 14.49023438 C-0.15148241 9.65966914 -0.08258128 4.83005184 0 0 Z " fill="#fff" transform="translate(537,189)"/>
<path d="M0 0 C1 3 1 3 0.14672852 4.73754883 C-0.29227783 5.36685303 -0.73128418 5.99615723 -1.18359375 6.64453125 C-12.06059501 23.10468411 -16.44452466 41.61795855 -18 61 C-28.5184473 57.46457199 -36.46650529 52.54487075 -41.84375 42.58203125 C-47.04425131 30.96874962 -45.21059479 16.98622055 -42 5 C-40.98292969 5.2165625 -40.98292969 5.2165625 -39.9453125 5.4375 C-25.41259242 8.33599265 -13.33668877 6.63466588 0 0 Z " fill="#fff" transform="translate(121,274)"/>
<path d="M0 0 C2.81640625 2.02734375 2.81640625 2.02734375 5 4 C5 4.99 5 5.98 5 7 C4.154375 7.495 3.30875 7.99 2.4375 8.5 C-6.24450717 13.86967742 -9.56235825 25.09563876 -11.83984375 34.44921875 C-12.58551783 37.62778337 -13.30482073 40.81006391 -14 44 C-15.32 44 -16.64 44 -18 44 C-18.47308594 42.77925781 -18.94617188 41.55851562 -19.43359375 40.30078125 C-26.38179384 22.82797078 -34.76536216 9.41210522 -50.73339844 -0.98144531 C-52.18777507 -1.94053394 -53.59848472 -2.96519699 -55 -4 C-55 -4.66 -55 -5.32 -55 -6 C-53.25197854 -6.81674796 -51.50149811 -7.62823451 -49.75 -8.4375 C-48.77546875 -8.88996094 -47.8009375 -9.34242188 -46.796875 -9.80859375 C-30.03903436 -16.94705939 -13.84780858 -9.77878426 0 0 Z " fill="#fff" transform="translate(279,211)"/>
<path d="M0 0 C0.63055821 14.26929866 -0.97876131 26.15201083 -10.78125 36.96484375 C-18.11358642 44.07180098 -27.03755552 46.34672495 -37 47 C-37.29132813 46.23816406 -37.58265625 45.47632813 -37.8828125 44.69140625 C-42.59076482 32.83269616 -48.7142578 21.99414617 -60.5625 16 C-61.366875 15.67 -62.17125 15.34 -63 15 C-62.67 14.01 -62.34 13.02 -62 12 C-61.26064209 12.01571045 -60.52128418 12.0314209 -59.75952148 12.04760742 C-38.63403643 12.43708544 -17.79175609 0 0 0 Z " fill="#fff" transform="translate(278,372)"/>
<path d="M0 0 C11.22 0 22.44 0 34 0 C34 3.63 34 7.26 34 11 C27.07 11 20.14 11 13 11 C13 14.63 13 18.26 13 22 C19.27 22 25.54 22 32 22 C32 25.63 32 29.26 32 33 C25.73 33 19.46 33 13 33 C13 37.29 13 41.58 13 46 C19.93 46 26.86 46 34 46 C34 49.63 34 53.26 34 57 C22.78 57 11.56 57 0 57 C0 38.19 0 19.38 0 0 Z " fill="#fff" transform="translate(621,378)"/>
<path d="M0 0 C11.22 0 22.44 0 34 0 C34 3.63 34 7.26 34 11 C27.07 11 20.14 11 13 11 C13 14.63 13 18.26 13 22 C19.27 22 25.54 22 32 22 C32 25.63 32 29.26 32 33 C25.73 33 19.46 33 13 33 C13 37.29 13 41.58 13 46 C19.93 46 26.86 46 34 46 C34 49.63 34 53.26 34 57 C22.78 57 11.56 57 0 57 C0 38.19 0 19.38 0 0 Z " fill="#fff" transform="translate(442,189)"/>
<path d="M0 0 C10.89 0 21.78 0 33 0 C33 3.63 33 7.26 33 11 C26.4 11 19.8 11 13 11 C13 14.63 13 18.26 13 22 C19.27 22 25.54 22 32 22 C32 25.63 32 29.26 32 33 C25.73 33 19.46 33 13 33 C13 37.29 13 41.58 13 46 C19.6 46 26.2 46 33 46 C33 49.63 33 53.26 33 57 C22.11 57 11.22 57 0 57 C0 38.19 0 19.38 0 0 Z " fill="#fff" transform="translate(486,378)"/>
<path d="M0 0 C10.89 0 21.78 0 33 0 C33 3.63 33 7.26 33 11 C26.4 11 19.8 11 13 11 C13 14.63 13 18.26 13 22 C19.27 22 25.54 22 32 22 C32 25.63 32 29.26 32 33 C25.73 33 19.46 33 13 33 C13 37.29 13 41.58 13 46 C19.6 46 26.2 46 33 46 C33 49.63 33 53.26 33 57 C22.11 57 11.22 57 0 57 C0 38.19 0 19.38 0 0 Z " fill="#fff" transform="translate(547,284)"/>
<path d="M0 0 C1.13643966 3.40931897 0.86747764 4.00335456 -0.4375 7.1875 C-0.86869141 8.26064453 -0.86869141 8.26064453 -1.30859375 9.35546875 C-1.65083984 10.16951172 -1.65083984 10.16951172 -2 11 C-5.46941546 10.54177532 -8.67395049 10.10868317 -12 9 C-14.72331488 8.76811378 -17.25039269 8.86906632 -20 9 C-20.66 9.66 -21.32 10.32 -22 11 C-22.14091482 13.47326954 -22.14091482 13.47326954 -21 16 C-18.24232436 18.24968276 -15.45084132 19.76545827 -12.296875 21.40625 C-6.39918822 24.49701634 -2.07090765 26.85818469 1 33 C1.40045268 37.78232917 1.6379928 42.36957396 -0.125 46.875 C-5.15331342 52.57375521 -9.6384276 55.48587662 -17.28125 56.21875 C-23.96545043 56.4725804 -29.63053606 54.95983506 -36 53 C-36.33 48.71 -36.66 44.42 -37 40 C-32 41 -32 41 -29.75 42 C-23.91056192 44.12343203 -18.05373459 44.39701568 -12 43 C-11.88882988 39.64950692 -11.88882988 39.64950692 -13 36 C-15.29718778 33.97684415 -17.93063754 32.79494985 -20.6875 31.5 C-27.63570111 27.93913293 -33.37434655 24.87696036 -36 17 C-36.58226942 11.06085195 -35.41188982 6.81432307 -32 2 C-23.31556388 -5.05610435 -9.87818662 -5.03228375 0 0 Z " fill="#fff" transform="translate(475,286)"/>
<path d="M0 0 C-0.50797009 4.3177458 -1.19682779 8.03302114 -3 12 C-3.64066406 11.7834375 -4.28132813 11.566875 -4.94140625 11.34375 C-13.80746621 8.44206159 -13.80746621 8.44206159 -22.75 10.1875 C-26.42391129 13.14703965 -28.08086581 16.44536185 -29 21 C-29.56537152 28.00190882 -29.15873588 33.68252824 -26 40 C-23.65209675 42.32122253 -22.35341604 42.95652422 -19.046875 43.36328125 C-12.69901389 43.26550614 -7.07014265 42.90435848 -1 41 C-1.33 44.96 -1.66 48.92 -2 53 C-10.53606734 56.41442694 -20.24434736 57.28558973 -29 54 C-35.76486081 50.35738264 -39.79016784 45.43807847 -42.38256836 38.22070312 C-43.41113792 34.52126908 -43.4886768 30.94565509 -43.4375 27.125 C-43.43065186 26.33706055 -43.42380371 25.54912109 -43.41674805 24.73730469 C-43.1666714 15.64463002 -40.56278479 8.41016189 -34 2 C-23.67406978 -5.23280247 -11.40481735 -4.32507746 0 0 Z " fill="#fff" transform="translate(483,380)"/>
<path d="M0 0 C14.19 0 28.38 0 43 0 C43 3.63 43 7.26 43 11 C38.05 11 33.1 11 28 11 C28 26.18 28 41.36 28 57 C23.71 57 19.42 57 15 57 C15 41.82 15 26.64 15 11 C10.05 11 5.1 11 0 11 C0 7.37 0 3.74 0 0 Z " fill="#fff" transform="translate(576,378)"/>
</svg>
   